<svg width="1600" height="384" viewBox="0 0 1600 384" fill="none" xmlns="http://www.w3.org/2000/svg">
<rect width="1600" height="384" fill="url(#paint0_radial_259_2504)"/>
<path d="M197.862 231.938C210.925 231.938 219.175 224.5 219.55 212.312H228.112C228.112 228.375 215.487 239.875 197.862 239.875C177.112 239.875 165.112 225.438 165.112 200.375V185.438C165.112 160.375 177.112 145.938 197.862 145.938C216.175 145.938 227.737 157.125 228.175 175.375H219.612C219.112 162.562 210.3 153.875 197.862 153.875C181.987 153.875 173.675 164.75 173.675 185.438V200.375C173.675 221.062 181.987 231.938 197.862 231.938ZM307.362 200.375C307.362 225.25 294.987 239.875 274.925 239.875C254.862 239.875 242.487 225.25 242.487 200.375V185.438C242.487 160.562 254.862 145.938 274.925 145.938C294.987 145.938 307.362 160.562 307.362 185.438V200.375ZM274.925 231.938C289.675 231.938 298.8 220.375 298.8 200.375V185.438C298.8 165.438 289.675 153.875 274.925 153.875C260.175 153.875 251.05 165.438 251.05 185.438V200.375C251.05 220.375 260.175 231.938 274.925 231.938ZM329.987 164.438V238H321.987V147.812H332.05L353.737 205.812H354.425L375.987 147.812H386.112V238H378.112V164.438H377.487L357.737 216.812H350.362L330.612 164.438H329.987ZM407.112 147.812H435.987C452.925 147.812 464.237 159.062 464.237 175.875C464.237 192.688 452.925 203.938 435.987 203.938H415.675V238H407.112V147.812ZM415.675 155.438V196.312H433.925C447.612 196.312 455.55 188.812 455.55 175.875C455.55 162.938 447.612 155.438 433.925 155.438H415.675ZM482.425 214.562H490.987C492.175 225.375 500.737 232.062 513.362 232.062C526.237 232.062 534.675 225.062 534.675 214.375C534.675 205.75 528.987 200.375 516.112 197.062L509.05 195.25C492.112 190.812 484.675 183.125 484.675 170.188C484.675 155.5 495.987 145.938 513.362 145.938C529.737 145.938 540.987 155.375 541.862 169.875H533.3C532.05 159.688 524.675 153.75 513.362 153.75C500.862 153.75 493.425 159.875 493.425 170.188C493.425 178.625 498.8 183.625 511.3 186.875L518.612 188.812C536.175 193.375 543.425 200.875 543.425 214.375C543.425 229.75 531.487 239.875 513.362 239.875C495.425 239.875 483.487 230.125 482.425 214.562ZM616.612 238L607.8 210.375H575.05L566.237 238H557.487L587.237 147.812H595.612L625.362 238H616.612ZM591.362 159L577.362 203H605.487L591.487 159H591.362ZM671.55 238H643.737V147.812H671.487C687.862 147.812 697.675 156.125 697.675 170.062C697.675 180.125 691.425 188.25 682.425 189.938V190.75C694.612 192.125 702.3 200.812 702.3 213.062C702.3 228.812 690.987 238 671.55 238ZM652.3 155.375V187.562H667.8C681.675 187.562 689.05 181.938 689.05 171.438C689.05 161.25 682.05 155.375 669.862 155.375H652.3ZM652.3 230.438H670.362C685.425 230.438 693.55 224.188 693.55 212.625C693.55 201.062 685.425 195 669.925 195H652.3V230.438ZM777.112 230.25V238H725.237V147.812H777.112V155.562H733.8V188H774.8V195.625H733.8V230.25H777.112ZM833.55 200.812H809.862V238H801.487V147.812H830.862C848.05 147.812 858.925 158 858.925 174.188C858.925 186.062 852.237 195.75 841.8 198.875L860.3 238H850.675L833.55 200.812ZM809.862 155.438V193.438H829.675C843.05 193.438 850.425 186.75 850.425 174.562C850.425 162.312 843.175 155.438 830.3 155.438H809.862ZM932.2 238H899.95V147.812H931.575C948.638 147.812 958.888 156.188 958.888 170.188C958.888 180 952.2 188.188 942.95 189.688V190.688C954.95 191.688 963.263 200.688 963.263 212.5C963.263 228.312 951.575 238 932.2 238ZM914.825 159.75V185.688H926.575C937.575 185.688 943.7 181.062 943.7 172.875C943.7 164.438 937.95 159.75 927.7 159.75H914.825ZM914.825 225.875H927.95C941.075 225.875 947.575 221.125 947.575 211.312C947.575 201.875 940.888 197.062 927.7 197.062H914.825V225.875ZM1028.89 238L1022.39 214.312H993.763L987.2 238H972.075L999.888 147.812H1017.26L1045.08 238H1028.89ZM1007.83 163.625L997.138 202.312H1019.08L1008.45 163.625H1007.83ZM1089.7 226.188C1100.14 226.188 1106.64 219.438 1106.82 208.438H1122.14C1122.14 227.625 1109.45 239.812 1089.76 239.812C1067.89 239.812 1055.07 225.75 1055.07 201.625V184.188C1055.07 160.062 1067.89 146 1089.76 146C1109.82 146 1121.89 158.062 1122.14 178.5H1106.82C1106.57 167.125 1099.64 159.625 1089.51 159.625C1077.2 159.625 1070.7 168.062 1070.7 184.188V201.625C1070.7 217.75 1077.2 226.188 1089.7 226.188ZM1153.01 238H1138.57V147.812H1153.01V190.438H1153.95L1187.45 147.812H1203.89L1171.89 187.625L1206.39 238H1188.45L1161.57 198.625L1153.01 209.188V238ZM1275.01 224.812V238H1219.57V147.812H1275.01V161H1234.7V186.125H1272.7V198.438H1234.7V224.812H1275.01ZM1307.32 238H1294.07V147.812H1307.82L1341.82 212.062H1342.82V147.812H1356.07V238H1342.39L1308.32 173.5H1307.32V238ZM1373.14 147.812H1400.64C1426.01 147.812 1439.07 163 1439.07 192.438C1439.07 222.625 1426.14 238 1400.64 238H1373.14V147.812ZM1388.26 161V224.812H1398.76C1415.76 224.812 1423.64 214.75 1423.64 192.688C1423.64 171.25 1415.64 161 1398.76 161H1388.26Z" fill="#131313"/>
<defs>
<radialGradient id="paint0_radial_259_2504" cx="0" cy="0" r="1" gradientUnits="userSpaceOnUse" gradientTransform="translate(800 192) scale(665.971 159.833)">
<stop stop-color="#004DDB" stop-opacity="0.5"/>
<stop offset="1" stop-color="#2B2B2B" stop-opacity="0"/>
</radialGradient>
</defs>
</svg>
