<svg width="1600" height="384" viewBox="0 0 1600 384" fill="none" xmlns="http://www.w3.org/2000/svg">
<rect width="1600" height="384" fill="url(#paint0_radial_259_2516)"/>
<path d="M158.3 231.938C171.362 231.938 179.612 224.5 179.987 212.312H188.55C188.55 228.375 175.925 239.875 158.3 239.875C137.55 239.875 125.55 225.438 125.55 200.375V185.438C125.55 160.375 137.55 145.938 158.3 145.938C176.612 145.938 188.175 157.125 188.612 175.375H180.05C179.55 162.562 170.737 153.875 158.3 153.875C142.425 153.875 134.112 164.75 134.112 185.438V200.375C134.112 221.062 142.425 231.938 158.3 231.938ZM267.8 200.375C267.8 225.25 255.425 239.875 235.362 239.875C215.3 239.875 202.925 225.25 202.925 200.375V185.438C202.925 160.562 215.3 145.938 235.362 145.938C255.425 145.938 267.8 160.562 267.8 185.438V200.375ZM235.362 231.938C250.112 231.938 259.237 220.375 259.237 200.375V185.438C259.237 165.438 250.112 153.875 235.362 153.875C220.612 153.875 211.487 165.438 211.487 185.438V200.375C211.487 220.375 220.612 231.938 235.362 231.938ZM290.425 164.438V238H282.425V147.812H292.487L314.175 205.812H314.862L336.425 147.812H346.55V238H338.55V164.438H337.925L318.175 216.812H310.8L291.05 164.438H290.425ZM367.55 147.812H396.425C413.362 147.812 424.675 159.062 424.675 175.875C424.675 192.688 413.362 203.938 396.425 203.938H376.112V238H367.55V147.812ZM376.112 155.438V196.312H394.362C408.05 196.312 415.987 188.812 415.987 175.875C415.987 162.938 408.05 155.438 394.362 155.438H376.112ZM442.862 214.562H451.425C452.612 225.375 461.175 232.062 473.8 232.062C486.675 232.062 495.112 225.062 495.112 214.375C495.112 205.75 489.425 200.375 476.55 197.062L469.487 195.25C452.55 190.812 445.112 183.125 445.112 170.188C445.112 155.5 456.425 145.938 473.8 145.938C490.175 145.938 501.425 155.375 502.3 169.875H493.737C492.487 159.688 485.112 153.75 473.8 153.75C461.3 153.75 453.862 159.875 453.862 170.188C453.862 178.625 459.237 183.625 471.737 186.875L479.05 188.812C496.612 193.375 503.862 200.875 503.862 214.375C503.862 229.75 491.925 239.875 473.8 239.875C455.862 239.875 443.925 230.125 442.862 214.562ZM577.05 238L568.237 210.375H535.487L526.675 238H517.925L547.675 147.812H556.05L585.8 238H577.05ZM551.8 159L537.8 203H565.925L551.925 159H551.8ZM631.987 238H604.175V147.812H631.925C648.3 147.812 658.112 156.125 658.112 170.062C658.112 180.125 651.862 188.25 642.862 189.938V190.75C655.05 192.125 662.737 200.812 662.737 213.062C662.737 228.812 651.425 238 631.987 238ZM612.737 155.375V187.562H628.237C642.112 187.562 649.487 181.938 649.487 171.438C649.487 161.25 642.487 155.375 630.3 155.375H612.737ZM612.737 230.438H630.8C645.862 230.438 653.987 224.188 653.987 212.625C653.987 201.062 645.862 195 630.362 195H612.737V230.438ZM737.55 230.25V238H685.675V147.812H737.55V155.562H694.237V188H735.237V195.625H694.237V230.25H737.55ZM793.987 200.812H770.3V238H761.925V147.812H791.3C808.487 147.812 819.362 158 819.362 174.188C819.362 186.062 812.675 195.75 802.237 198.875L820.737 238H811.112L793.987 200.812ZM770.3 155.438V193.438H790.112C803.487 193.438 810.862 186.75 810.862 174.562C810.862 162.312 803.612 155.438 790.737 155.438H770.3ZM879.888 238H864.763V147.812H920.2V161H879.888V188.125H916.638V200.75H879.888V238ZM970.325 203.688H954.388V238H939.325V147.812H971.075C990.075 147.812 1001.76 158.5 1001.76 175.875C1001.76 187.625 995.388 197.375 985.388 201L1003.58 238H986.575L970.325 203.688ZM954.388 160.375V191.812H969.013C980.013 191.812 986.388 186 986.388 176.062C986.388 166.125 980.138 160.375 969.325 160.375H954.388ZM1082.2 199.938C1082.2 225 1069.33 239.812 1048.14 239.812C1026.95 239.812 1014.08 225 1014.08 199.938V185.875C1014.08 160.812 1026.95 146 1048.14 146C1069.33 146 1082.2 160.812 1082.2 185.875V199.938ZM1048.14 226.312C1060.14 226.312 1066.89 217.188 1066.89 199.812V186C1066.89 168.625 1060.14 159.5 1048.14 159.5C1036.14 159.5 1029.39 168.625 1029.39 186V199.812C1029.39 217.188 1036.14 226.312 1048.14 226.312ZM1109.51 238H1096.26V147.812H1110.01L1144.01 212.062H1145.01V147.812H1158.26V238H1144.57L1110.51 173.5H1109.51V238ZM1213.95 238H1198.82V161H1172.45V147.812H1240.32V161H1213.95V238ZM1314.57 224.812V238H1259.14V147.812H1314.57V161H1274.26V186.125H1312.26V198.438H1274.26V224.812H1314.57ZM1346.89 238H1333.64V147.812H1347.39L1381.39 212.062H1382.39V147.812H1395.64V238H1381.95L1347.89 173.5H1346.89V238ZM1412.7 147.812H1440.2C1465.57 147.812 1478.64 163 1478.64 192.438C1478.64 222.625 1465.7 238 1440.2 238H1412.7V147.812ZM1427.82 161V224.812H1438.32C1455.32 224.812 1463.2 214.75 1463.2 192.688C1463.2 171.25 1455.2 161 1438.32 161H1427.82Z" fill="#131313"/>
<defs>
<radialGradient id="paint0_radial_259_2516" cx="0" cy="0" r="1" gradientUnits="userSpaceOnUse" gradientTransform="translate(800 192) scale(665.971 159.833)">
<stop stop-color="#004DDB" stop-opacity="0.5"/>
<stop offset="1" stop-color="#2B2B2B" stop-opacity="0"/>
</radialGradient>
</defs>
</svg>
