<svg width="1534" height="384" viewBox="0 0 1534 384" fill="none" xmlns="http://www.w3.org/2000/svg">
<rect width="1534" height="384" fill="url(#paint0_radial_235_2504)"/>
<path d="M217.375 238H208.875V155.562H181.125V147.812H245.125V155.562H217.375V238ZM324.688 200.375C324.688 225.25 312.312 239.875 292.25 239.875C272.188 239.875 259.812 225.25 259.812 200.375V185.438C259.812 160.562 272.188 145.938 292.25 145.938C312.312 145.938 324.688 160.562 324.688 185.438V200.375ZM292.25 231.938C307 231.938 316.125 220.375 316.125 200.375V185.438C316.125 165.438 307 153.875 292.25 153.875C277.5 153.875 268.375 165.438 268.375 185.438V200.375C268.375 220.375 277.5 231.938 292.25 231.938ZM371.375 232C385.625 232 394 222.5 394 206.438V147.812H402.5V207C402.5 227.5 390.812 239.875 371.375 239.875C351.938 239.875 340.25 227.5 340.25 207V147.812H348.75V206.438C348.75 222.5 357.125 232 371.375 232ZM455.25 200.812H431.562V238H423.188V147.812H452.562C469.75 147.812 480.625 158 480.625 174.188C480.625 186.062 473.938 195.75 463.5 198.875L482 238H472.375L455.25 200.812ZM431.562 155.438V193.438H451.375C464.75 193.438 472.125 186.75 472.125 174.562C472.125 162.312 464.875 155.438 452 155.438H431.562ZM508.188 238H500.188V147.812H508.875L550.25 222.688H551.062V147.812H559.062V238H550.562L509 163.062H508.188V238ZM633.938 238L625.125 210.375H592.375L583.562 238H574.812L604.562 147.812H612.938L642.688 238H633.938ZM608.688 159L594.688 203H622.812L608.812 159H608.688ZM663.812 164.438V238H655.812V147.812H665.875L687.562 205.812H688.25L709.812 147.812H719.938V238H711.938V164.438H711.312L691.562 216.812H684.188L664.438 164.438H663.812ZM794.438 230.25V238H742.562V147.812H794.438V155.562H751.125V188H792.125V195.625H751.125V230.25H794.438ZM824.688 238H816.688V147.812H825.375L866.75 222.688H867.562V147.812H875.562V238H867.062L825.5 163.062H824.688V238ZM929.5 238H921V155.562H893.25V147.812H957.25V155.562H929.5V238ZM1011.94 238H996.812V161H970.438V147.812H1038.31V161H1011.94V238ZM1117.56 199.938C1117.56 225 1104.69 239.812 1083.5 239.812C1062.31 239.812 1049.44 225 1049.44 199.938V185.875C1049.44 160.812 1062.31 146 1083.5 146C1104.69 146 1117.56 160.812 1117.56 185.875V199.938ZM1083.5 226.312C1095.5 226.312 1102.25 217.188 1102.25 199.812V186C1102.25 168.625 1095.5 159.5 1083.5 159.5C1071.5 159.5 1064.75 168.625 1064.75 186V199.812C1064.75 217.188 1071.5 226.312 1083.5 226.312ZM1196.69 199.938C1196.69 225 1183.81 239.812 1162.62 239.812C1141.44 239.812 1128.56 225 1128.56 199.938V185.875C1128.56 160.812 1141.44 146 1162.62 146C1183.81 146 1196.69 160.812 1196.69 185.875V199.938ZM1162.62 226.312C1174.62 226.312 1181.38 217.188 1181.38 199.812V186C1181.38 168.625 1174.62 159.5 1162.62 159.5C1150.62 159.5 1143.88 168.625 1143.88 186V199.812C1143.88 217.188 1150.62 226.312 1162.62 226.312ZM1273.12 224.562V238H1217.44V147.812H1232.38V224.562H1273.12ZM1288.31 213.25H1302.75C1303.62 221.938 1310.62 227.062 1321.62 227.062C1332.25 227.062 1339.06 221.75 1339.06 213.438C1339.06 206.625 1334.56 202.75 1323.44 200.125L1314.75 198.062C1298.25 194.125 1290.38 185.812 1290.38 172.562C1290.38 156.375 1302.5 146 1321.44 146C1339.56 146 1351.88 156.25 1352.44 171.875H1338.06C1337.25 163.625 1331.06 158.75 1321.56 158.75C1311.56 158.75 1305.5 163.438 1305.5 171.25C1305.5 178.188 1309.88 182.125 1320.44 184.562L1329.12 186.625C1346.56 190.688 1354.06 198.438 1354.06 212.125C1354.06 229.25 1341.56 239.812 1321.38 239.812C1301.62 239.812 1289.06 229.75 1288.31 213.25Z" fill="#131313"/>
<defs>
<radialGradient id="paint0_radial_235_2504" cx="0" cy="0" r="1" gradientUnits="userSpaceOnUse" gradientTransform="translate(767 192) scale(638.5 159.833)">
<stop stop-color="#004DDB" stop-opacity="0.5"/>
<stop offset="1" stop-color="#2B2B2B" stop-opacity="0"/>
</radialGradient>
</defs>
</svg>
